#!OML:ASF H:\BabyWalks\Project 1\Capture day 1\Session 1\baby.ASF
:FULLY-SPECIFIED
:DEGREES
410
root -9.33951 17.5889 -2.52477 195.111 50.8298 189.676
lowerback 19.5205 -2.57376 -2.80241
upperback 3.1569 -3.54665 1.39835
thorax -7.21656 -1.50731 3.97785
lowerneck -3.32138 -4.3819 3.04151
upperneck 1.63963 -6.02408 2.97726
head 1.0551 -2.9321 0.300758
rclavicle -1.59028e-015 2.06736e-014
rhumerus -49.4922 7.73312 -76.3565
rradius 49.4727
rwrist -1.95942
rhand -10.1132 -18.0499
rfingers 7.12502
rthumb 15.8746 -47.4192
lclavicle -1.59028e-015 2.06736e-014
lhumerus -18.5326 -24.9125 67.3119
lradius 76.0149
lwrist -2.38937
lhand -8.52784 -2.16608
lfingers 7.12502
lthumb 17.4009 27.075
rfemur -30.1601 2.13532 20.3877
rtibia 37.2711
rfoot -20.533 9.57364
rtoes -18.7253
lfemur -7.291 -11.7866 -17.5849
ltibia 32.8007
lfoot -25.3072 -23.1335
ltoes 23.0615
411
root -9.21708 17.6113 -2.63931 194.92 51.1307 189.49
lowerback 19.3925 -2.5816 -2.77125
upperback 3.04307 -3.55439 1.46855
thorax -7.2684 -1.51286 4.03549
lowerneck -3.34758 -4.33813 3.15675
upperneck 1.92269 -5.97175 2.38828
head 1.12561 -2.91082 0.0989579
rclavicle 7.95139e-014 -2.54444e-014
rhumerus -49.7462 7.85933 -76.1352
rradius 49.5331
rwrist -2.10308
rhand -10.0912 -18.0722
rfingers 7.12502
rthumb 15.8958 -47.4398
lclavicle 7.95139e-014 -2.54444e-014
lhumerus -19.1722 -25.1386 67.8607
lradius 76.6604
lwrist -1.77898
lhand -8.25482 -2.06342
lfingers 7.12502
lthumb 17.6636 27.1543
rfemur -30.5102 1.31418 21.111
rtibia 36.4814
rfoot -20.3048 9.33639
rtoes -18.1069
lfemur -6.33527 -10.9617 -17.8782
ltibia 32.1415
lfoot -24.2639 -23.7849
ltoes 23.182
412
root -9.09268 17.632 -2.75569 194.68 51.4816 189.272
lowerback 19.258 -2.57339 -2.75653
upperback 2.93445 -3.54402 1.53585
thorax -7.31162 -1.50937 4.09432
lowerneck -3.3779 -4.29189 3.26391
upperneck 2.24425 -5.91324 1.78181
head 1.21016 -2.88656 -0.108218
rclavicle -5.84427e-014 2.54444e-014
rhumerus -49.9819 7.98966 -75.9117
rradius 49.5827
rwrist -2.29602
rhand -10.0263 -18.1183
rfingers 7.12502
rthumb 15.9583 -47.4809
lclavicle -5.84427e-014 2.54444e-014
lhumerus -19.8908 -25.2266 68.4134
lradius 77.2032
lwrist -1.27419
lhand -7.92947 -1.96689
lfingers 7.12502
lthumb 17.9767 27.2223
rfemur -30.7848 0.533189 21.8322
rtibia 35.8465
rfoot -20.0213 9.00217
rtoes -17.3444
lfemur -5.42814 -9.90355 -18.1596
ltibia 31.6154
lfoot -23.0624 -24.6375
ltoes 23.311
413
root -8.96661 17.6507 -2.87331 194.374 51.871 189.005
lowerback 19.1238 -2.55035 -2.75719
upperback 2.83063 -3.51772 1.59174
thorax -7.35084 -1.49785 4.14551
lowerneck -3.40772 -4.246 3.36887
upperneck 2.59591 -5.85137 1.16408
head 1.30548 -2.86088 -0.320146
rclavicle 2.78299e-015 9.54166e-015
rhumerus -50.2004 8.1071 -75.6919
rradius 49.6131
rwrist -2.52835
rhand -9.92732 -18.1751
rfingers 7.12502
rthumb 16.0536 -47.53
lclavicle 2.78299e-015 9.54166e-015
lhumerus -20.6686 -25.2023 68.9596
lradius 77.6264
lwrist -0.89985
lhand -7.58199 -1.86616
lfingers 7.12502
lthumb 18.311 27.292
rfemur -30.9773 -0.182874 22.5172
rtibia 35.3642
rfoot -19.6801 8.61033
rtoes -16.3803
lfemur -4.5958 -8.63446 -18.4214
ltibia 31.2647
lfoot -21.6601 -25.7101
ltoes 23.5257
414
root -8.83909 17.6664 -2.9917 193.99 52.2819 188.676
lowerback 18.9974 -2.5214 -2.77432
upperback 2.73518 -3.48724 1.63475
thorax -7.38523 -1.48388 4.19125
lowerneck -3.44835 -4.19935 3.46517
upperneck 2.98312 -5.78459 0.545503
head 1.41589 -2.83282 -0.533386
rclavicle 1.51076e-014 -1.51076e-014
rhumerus -50.3933 8.22473 -75.4831
rradius 49.6262
rwrist -2.79019
rhand -9.81221 -18.2407
rfingers 7.12502
rthumb 16.1645 -47.5867
lclavicle 1.51076e-014 -1.51076e-014
lhumerus -21.4941 -25.0685 69.4905
lradius 77.9219
lwrist -0.650084
lhand -7.22413 -1.76714
lfingers 7.12502
lthumb 18.6552 27.3583
rfemur -31.0787 -0.804879 23.1323
rtibia 35.0253
rfoot -19.268 8.22418
rtoes -15.2106
lfemur -3.86132 -7.18829 -18.6557
ltibia 31.1319
lfoot -20.0064 -27.0057
ltoes 23.8558
415
root -8.71021 17.6779 -3.11023 193.508 52.6978 188.264
lowerback 18.884 -2.48665 -2.80889
upperback 2.64911 -3.4537 1.65623
thorax -7.41701 -1.46797 4.22327
lowerneck -3.48774 -4.15541 3.56624
upperneck 3.38022 -5.71674 -0.0711827
head 1.53084 -2.80471 -0.748813
rclavicle 4.6118e-014 7.15625e-015
rhumerus -50.5712 8.32169 -75.29
rradius 49.6252
rwrist -3.058
rhand -9.66981 -18.3051
rfingers 7.12502
rthumb 16.3016 -47.6399
lclavicle 4.6118e-014 7.15625e-015
lhumerus -22.3496 -24.8606 69.9945
lradius 78.0895
lwrist -0.505243
lhand -6.88433 -1.65147
lfingers 7.12502
lthumb 18.9821 27.4423
rfemur -31.0815 -1.29568 23.6373
rtibia 34.8162
rfoot -18.7791 7.90334
rtoes -13.8285
lfemur -3.24993 -5.60953 -18.8621
ltibia 31.259
lfoot -18.0449 -28.4954
ltoes 24.3021
416
root -8.58024 17.6844 -3.22847 192.923 53.1 187.765
lowerback 18.7911 -2.45088 -2.84952
upperback 2.57401 -3.42148 1.65057
thorax -7.44921 -1.45246 4.23045
lowerneck -3.53142 -4.11732 3.67494
upperneck 3.78213 -5.65274 -0.673742
head 1.64983 -2.77874 -0.963415
rclavicle -5.02925e-014 3.65764e-014
rhumerus -50.7424 8.38314 -75.1169
rradius 49.6188
rwrist -3.31022
rhand -9.50732 -18.3626
rfingers 7.12502
rthumb 16.458 -47.6845
lclavicle -5.02925e-014 3.65764e-014
lhumerus -23.2335 -24.6121 70.4539
lradius 78.1468
lwrist -0.418828
lhand -6.57853 -1.50003
lfingers 7.12502
lthumb 19.2761 27.5646
rfemur -30.9814 -1.62456 24.0092
rtibia 34.7226
rfoot -18.2062 7.70096
rtoes -12.3004
lfemur -2.77947 -3.96747 -19.0336
ltibia 31.6776
lfoot -15.7134 -30.1276
ltoes 24.8355
417
root -8.44944 17.6845 -3.3461 192.222 53.4718 187.166
lowerback 18.7207 -2.41681 -2.90876
upperback 2.51376 -3.396 1.62255
thorax -7.4771 -1.43968 4.2263
lowerneck -3.58895 -4.08304 3.77872
upperneck 4.17841 -5.59028 -1.25278
head 1.77174 -2.75388 -1.1722
rclavicle 1.49089e-014 -1.03368e-014
rhumerus -50.9081 8.42398 -74.9599
rradius 49.6152
rwrist -3.5507
rhand -9.33131 -18.4021
rfingers 7.12502
rthumb 16.6275 -47.7099
lclavicle 1.49089e-014 -1.03368e-014
lhumerus -24.1301 -24.322 70.8733
lradius 78.096
lwrist -0.356479
lhand -6.30409 -1.33099
lfingers 7.12502
lthumb 19.54 27.7071
rfemur -30.7809 -1.79243 24.229
rtibia 34.7316
rfoot -17.5406 7.68653
rtoes -10.5653
lfemur -2.46373 -2.33032 -19.1767
ltibia 32.4054
lfoot -12.975 -31.8165
ltoes 25.3445
418
root -8.31792 17.6773 -3.46291 191.409 53.792 186.472
lowerback 18.6717 -2.38478 -2.97452
upperback 2.47339 -3.37495 1.57131
thorax -7.49563 -1.42892 4.20216
lowerneck -3.6647 -4.05985 3.88786
upperneck 4.55503 -5.54045 -1.80663
head 1.89214 -2.7357 -1.37633
rclavicle 3.27995e-014 -1.11319e-014
rhumerus -51.0792 8.42913 -74.8156
rradius 49.626
rwrist -3.7719
rhand -9.15657 -18.4189
rfingers 7.12502
rthumb 16.7957 -47.7125
lclavicle 3.27995e-014 -1.11319e-014
lhumerus -25.0178 -24.0177 71.2445
lradius 77.9479
lwrist -0.286015
lhand -6.05366 -1.15618
lfingers 7.12502
lthumb 19.7808 27.8573
rfemur -30.4815 -1.81473 24.305
rtibia 34.8357
rfoot -16.7818 7.90748
rtoes -8.05975
lfemur -2.30657 -0.768755 -19.2889
ltibia 33.4471
lfoot -9.83151 -33.4574
ltoes 25.6116
419
root -8.18589 17.6629 -3.57872 190.509 54.046 185.707
lowerback 18.6431 -2.35963 -3.04666
upperback 2.45377 -3.36323 1.51158
thorax -7.50198 -1.42244 4.17496
lowerneck -3.75917 -4.04318 3.98553
upperneck 4.89512 -5.49738 -2.33045
head 2.00611 -2.72162 -1.57077
rclavicle 7.87187e-014 -2.0276e-014
rhumerus -51.2584 8.42296 -74.6744
rradius 49.6681
rwrist -3.98756
rhand -8.97444 -18.4228
rfingers 7.12502
rthumb 16.971 -47.7014
lclavicle 7.87187e-014 -2.0276e-014
lhumerus -25.9022 -23.6959 71.5782
lradius 77.7222
lwrist -0.183989
lhand -5.8482 -0.982557
lfingers 7.12502
lthumb 19.9783 28.0104
rfemur -30.0932 -1.69009 24.2512
rtibia 35.036
rfoot -15.9489 8.28026
rtoes -4.69283
lfemur -2.31068 0.659948 -19.3631
ltibia 34.795
lfoot -6.41203 -34.9069
ltoes 25.3889
420
root -8.05358 17.6412 -3.69301 189.541 54.2181 184.89
lowerback 18.6317 -2.34184 -3.1281
upperback 2.45523 -3.36113 1.45288
thorax -7.49321 -1.42025 4.15649
lowerneck -3.86693 -4.03627 4.06552
upperneck 5.18909 -5.46617 -2.8169
head 2.10938 -2.71416 -1.75145
rclavicle 4.07509e-014 -1.35174e-014
rhumerus -51.4537 8.40854 -74.5291
rradius 49.7473
rwrist -4.19888
rhand -8.79241 -18.4059
rfingers 7.12502
rthumb 17.1463 -47.6694
lclavicle 4.07509e-014 -1.35174e-014
lhumerus -26.7745 -23.3631 71.8793
lradius 77.4287
lwrist -0.0382979
lhand -5.65137 -0.858374
lfingers 7.12502
lthumb 20.1675 28.1148
rfemur -29.6213 -1.40821 24.0729
rtibia 35.3421
rfoot -15.2765 8.41157
rtoes -1.21338
lfemur -2.47141 1.90034 -19.4034
ltibia 36.4313
lfoot -2.9916 -36.0363
ltoes 24.4897
